<svg width="32" height="32" viewBox="0 0 32 32" fill="none" xmlns="http://www.w3.org/2000/svg">
  <path fill-rule="evenodd" clip-rule="evenodd" d="M0 24H16.122L31.9005 9H0V24Z"
        fill="url(#paint0_linear_14879_110590)"/>
  <path fill-rule="evenodd" clip-rule="evenodd"
        d="M18.9316 11.8206H15.7909V18.9176L13.0478 11.8184H10.3279L7.98633 17.7537C7.7357 16.2573 6.1112 15.7404 4.82707 15.3529C3.98079 15.0948 3.08267 14.7147 3.09428 14.2941C3.10124 13.95 3.57621 13.6323 4.5161 13.6779C5.1481 13.7095 5.70507 13.7581 6.81437 14.2662L7.90511 12.461C6.88941 11.972 5.49234 11.6625 4.34514 11.661H4.33818C3.00145 11.661 1.88751 12.0728 1.19748 12.7515C0.719665 13.2177 0.450449 13.8418 0.446348 14.4926C0.428556 15.4081 0.782077 16.0588 1.5247 16.5735C2.1513 17.0103 2.95271 17.2934 3.65976 17.5015C4.53157 17.7581 5.24325 17.9816 5.23474 18.4573C5.22983 18.6327 5.15617 18.8 5.0282 18.9265C4.81083 19.1397 4.47665 19.2206 4.0156 19.2279C3.12677 19.2456 2.46846 19.1132 1.41563 18.5228L0.446348 20.3544C1.53145 20.9398 2.75707 21.2493 4.00477 21.2529H4.16799C5.26956 21.2345 6.15916 20.936 6.8693 20.3919C6.9103 20.3617 6.94665 20.3301 6.98456 20.2978L6.66585 21.0956H9.51491L9.99375 19.7117C10.5345 19.8823 11.1011 19.9675 11.6708 19.964C12.2263 19.9665 12.7787 19.8859 13.3077 19.725L13.7719 21.0956H18.4241V18.2279H19.4383C21.8912 18.2279 23.3417 17.0404 23.3417 15.0515C23.3417 12.8375 21.9322 11.8206 18.9316 11.8206ZM11.6739 17.897C11.3309 17.899 10.9902 17.8422 10.6683 17.7294L11.6639 14.7448H11.6809L12.6595 17.7382C12.3427 17.8436 12.0095 17.8973 11.6739 17.897ZM19.1157 16.1816H18.4241V13.7728H19.1157C20.0385 13.7728 20.7742 14.0669 20.7742 14.9595C20.7742 15.886 20.0385 16.1779 19.1157 16.1779"
        fill="white"/>
  <defs>
    <linearGradient id="paint0_linear_14879_110590" x1="15.9502" y1="9" x2="15.9502" y2="24"
                    gradientUnits="userSpaceOnUse">
      <stop stop-color="#00B8F1"/>
      <stop offset="0.02" stop-color="#01B6F0"/>
      <stop offset="0.31" stop-color="#0D90D9"/>
      <stop offset="0.58" stop-color="#1775C8"/>
      <stop offset="0.82" stop-color="#1C65BF"/>
      <stop offset="1" stop-color="#1E5FBB"/>
    </linearGradient>
  </defs>
</svg>
